<?xml version="1.0" standalone="no"?>
<!DOCTYPE svg PUBLIC "-//W3C//DTD SVG 20010904//EN"
 "http://www.w3.org/TR/2001/REC-SVG-20010904/DTD/svg10.dtd">
<svg version="1.0" xmlns="http://www.w3.org/2000/svg"
 width="250.000000pt" height="250.000000pt" viewBox="0 0 250.000000 250.000000"
 preserveAspectRatio="xMidYMid meet">
<metadata>
Created by potrace 1.14, written by Peter Selinger 2001-2017
</metadata>
<g transform="translate(0.000000,250.000000) scale(0.100000,-0.100000)"
fill="#000000" stroke="none">
<path d="M0 1250 l0 -1250 1250 0 1250 0 0 1250 0 1250 -1250 0 -1250 0 0
-1250z m1125 435 c66 -101 122 -185 125 -185 3 0 59 83 125 185 l120 185 188
0 187 0 0 -620 0 -620 -75 0 -75 0 0 545 0 545 -30 0 -30 0 0 -545 c0 -538 0
-545 -20 -545 -20 0 -20 7 -20 498 l0 497 -180 -270 c-99 -148 -185 -270 -190
-270 -6 0 -92 122 -190 270 l-180 270 0 -497 c0 -491 0 -498 -20 -498 -20 0
-20 7 -20 545 l0 545 -30 0 -30 0 0 -545 0 -545 -75 0 -75 0 0 620 0 620 188
0 187 0 120 -185z m125 -704 c3 0 51 64 107 142 57 78 125 173 153 212 l50 69
0 -387 0 -387 -75 0 -75 0 0 160 c0 88 -3 160 -7 160 -5 0 -39 -49 -78 -110
-38 -60 -72 -109 -75 -109 -3 0 -36 49 -75 109 -38 61 -73 110 -77 110 -5 0
-8 -72 -8 -160 l0 -160 -75 0 -75 0 0 387 0 386 153 -211 c83 -116 154 -212
157 -211z"/>
<path d="M870 1713 c0 -10 374 -572 380 -573 6 0 380 564 380 573 0 4 -15 7
-33 7 -33 0 -38 -6 -187 -230 -84 -126 -156 -230 -160 -230 -4 0 -76 104 -160
230 -149 224 -154 230 -187 230 -18 0 -33 -3 -33 -7z"/>
</g>
</svg>
